<mxfile host="app.diagrams.net" agent="Mozilla/5.0 (X11; Linux x86_64) AppleWebKit/537.36 (KHTML, like Gecko) Chrome/137.0.0.0 Safari/537.36" version="27.2.0">
  <diagram name="Page-1" id="pKj0PbgQpWYqqbvY3G_h">
    <mxGraphModel dx="1404" dy="652" grid="1" gridSize="10" guides="1" tooltips="1" connect="1" arrows="1" fold="1" page="1" pageScale="1" pageWidth="1169" pageHeight="827" math="0" shadow="0">
      <root>
        <mxCell id="0" />
        <mxCell id="1" parent="0" />
        <mxCell id="4s5JDm3l8cxzBsFUcIRX-21" value="" style="rounded=0;whiteSpace=wrap;html=1;" vertex="1" parent="1">
          <mxGeometry x="200" y="120" width="680" height="520" as="geometry" />
        </mxCell>
        <mxCell id="4s5JDm3l8cxzBsFUcIRX-6" value="" style="rounded=0;whiteSpace=wrap;html=1;" vertex="1" parent="1">
          <mxGeometry x="360" y="400" width="400" height="80" as="geometry" />
        </mxCell>
        <mxCell id="4s5JDm3l8cxzBsFUcIRX-8" value="" style="rounded=0;whiteSpace=wrap;html=1;" vertex="1" parent="1">
          <mxGeometry x="360" y="520" width="400" height="80" as="geometry" />
        </mxCell>
        <mxCell id="4s5JDm3l8cxzBsFUcIRX-5" value="" style="rounded=0;whiteSpace=wrap;html=1;" vertex="1" parent="1">
          <mxGeometry x="360" y="160" width="400" height="80" as="geometry" />
        </mxCell>
        <mxCell id="4s5JDm3l8cxzBsFUcIRX-4" value="" style="rounded=0;whiteSpace=wrap;html=1;" vertex="1" parent="1">
          <mxGeometry x="360" y="280" width="400" height="80" as="geometry" />
        </mxCell>
        <mxCell id="4s5JDm3l8cxzBsFUcIRX-1" value="client_en" style="rounded=0;whiteSpace=wrap;html=1;fillColor=#d5e8d4;strokeColor=#82b366;" vertex="1" parent="1">
          <mxGeometry x="400" y="180" width="80" height="40" as="geometry" />
        </mxCell>
        <mxCell id="4s5JDm3l8cxzBsFUcIRX-2" value="server_cpp" style="rounded=0;whiteSpace=wrap;html=1;fillColor=#d5e8d4;strokeColor=#82b366;" vertex="1" parent="1">
          <mxGeometry x="640" y="180" width="80" height="40" as="geometry" />
        </mxCell>
        <mxCell id="4s5JDm3l8cxzBsFUcIRX-3" value="client_zh" style="rounded=0;whiteSpace=wrap;html=1;fillColor=#d5e8d4;strokeColor=#82b366;" vertex="1" parent="1">
          <mxGeometry x="400" y="300" width="80" height="40" as="geometry" />
        </mxCell>
        <mxCell id="4s5JDm3l8cxzBsFUcIRX-7" value="server_go" style="rounded=0;whiteSpace=wrap;html=1;fillColor=#d5e8d4;strokeColor=#82b366;fillStyle=zigzag-line;" vertex="1" parent="1">
          <mxGeometry x="640" y="420" width="80" height="40" as="geometry" />
        </mxCell>
        <mxCell id="4s5JDm3l8cxzBsFUcIRX-9" value="client_unity" style="rounded=0;whiteSpace=wrap;html=1;fillColor=#f8cecc;strokeColor=#b85450;" vertex="1" parent="1">
          <mxGeometry x="400" y="540" width="80" height="40" as="geometry" />
        </mxCell>
        <mxCell id="4s5JDm3l8cxzBsFUcIRX-10" value="Original" style="text;html=1;align=center;verticalAlign=middle;whiteSpace=wrap;rounded=0;" vertex="1" parent="1">
          <mxGeometry x="290" y="185" width="60" height="30" as="geometry" />
        </mxCell>
        <mxCell id="4s5JDm3l8cxzBsFUcIRX-11" value="Stage 1" style="text;html=1;align=center;verticalAlign=middle;whiteSpace=wrap;rounded=0;" vertex="1" parent="1">
          <mxGeometry x="290" y="305" width="60" height="30" as="geometry" />
        </mxCell>
        <mxCell id="4s5JDm3l8cxzBsFUcIRX-12" value="Stage 2" style="text;html=1;align=center;verticalAlign=middle;whiteSpace=wrap;rounded=0;" vertex="1" parent="1">
          <mxGeometry x="290" y="425" width="60" height="30" as="geometry" />
        </mxCell>
        <mxCell id="4s5JDm3l8cxzBsFUcIRX-14" value="Stage 3" style="text;html=1;align=center;verticalAlign=middle;whiteSpace=wrap;rounded=0;" vertex="1" parent="1">
          <mxGeometry x="290" y="545" width="60" height="30" as="geometry" />
        </mxCell>
        <mxCell id="4s5JDm3l8cxzBsFUcIRX-15" value="2019" style="text;html=1;align=center;verticalAlign=middle;whiteSpace=wrap;rounded=0;" vertex="1" parent="1">
          <mxGeometry x="220" y="185" width="60" height="30" as="geometry" />
        </mxCell>
        <mxCell id="4s5JDm3l8cxzBsFUcIRX-16" value="2019-2020" style="text;html=1;align=center;verticalAlign=middle;whiteSpace=wrap;rounded=0;" vertex="1" parent="1">
          <mxGeometry x="220" y="305" width="60" height="30" as="geometry" />
        </mxCell>
        <mxCell id="4s5JDm3l8cxzBsFUcIRX-17" value="2023-now" style="text;html=1;align=center;verticalAlign=middle;whiteSpace=wrap;rounded=0;" vertex="1" parent="1">
          <mxGeometry x="220" y="425" width="60" height="30" as="geometry" />
        </mxCell>
        <mxCell id="4s5JDm3l8cxzBsFUcIRX-18" value="" style="endArrow=classic;html=1;rounded=0;exitX=0;exitY=0.5;exitDx=0;exitDy=0;" edge="1" parent="1" source="4s5JDm3l8cxzBsFUcIRX-19">
          <mxGeometry width="50" height="50" relative="1" as="geometry">
            <mxPoint x="570" y="440" as="sourcePoint" />
            <mxPoint x="760" y="440" as="targetPoint" />
          </mxGeometry>
        </mxCell>
        <mxCell id="4s5JDm3l8cxzBsFUcIRX-19" value="Current" style="text;html=1;align=center;verticalAlign=middle;whiteSpace=wrap;rounded=0;" vertex="1" parent="1">
          <mxGeometry x="810" y="425" width="60" height="30" as="geometry" />
        </mxCell>
        <mxCell id="4s5JDm3l8cxzBsFUcIRX-20" value="2026" style="text;html=1;align=center;verticalAlign=middle;whiteSpace=wrap;rounded=0;" vertex="1" parent="1">
          <mxGeometry x="210" y="545" width="60" height="30" as="geometry" />
        </mxCell>
      </root>
    </mxGraphModel>
  </diagram>
</mxfile>
